<svg width="17" height="17" viewBox="0 0 17 17" fill="none" xmlns="http://www.w3.org/2000/svg">
<path fill-rule="evenodd" clip-rule="evenodd" d="M12.9822 4.69232C13.2751 4.39942 13.2751 3.92455 12.9822 3.63166C12.6893 3.33876 12.2144 3.33876 11.9216 3.63166L8.32688 7.22633L4.73221 3.63166C4.43932 3.33876 3.96444 3.33876 3.67155 3.63166C3.37866 3.92455 3.37866 4.39942 3.67155 4.69232L7.26622 8.28699L3.67155 11.8817C3.37866 12.1746 3.37866 12.6494 3.67155 12.9423C3.96444 13.2352 4.43932 13.2352 4.73221 12.9423L8.32688 9.34765L11.9216 12.9423C12.2144 13.2352 12.6893 13.2352 12.9822 12.9423C13.2751 12.6494 13.2751 12.1746 12.9822 11.8817L9.38754 8.28699L12.9822 4.69232Z" fill="#E45757"/>
</svg>
