<svg width="25" height="25" viewBox="0 0 25 25" fill="none" xmlns="http://www.w3.org/2000/svg">
<path d="M1.73682 6.21055C1.73682 3.78049 3.70676 1.81055 6.13682 1.81055H19.3368C21.7668 1.81055 23.7368 3.78049 23.7368 6.21055V19.4105C23.7368 21.8406 21.7668 23.8105 19.3368 23.8105H6.13682C3.70676 23.8105 1.73682 21.8406 1.73682 19.4105V6.21055Z" stroke="black" stroke-width="2" stroke-linecap="round" stroke-linejoin="round"/>
<path d="M12.7365 17.6992C15.4366 17.6992 17.6254 15.5103 17.6254 12.8103C17.6254 10.1102 15.4366 7.92139 12.7365 7.92139C10.0365 7.92139 7.84766 10.1102 7.84766 12.8103C7.84766 15.5103 10.0365 17.6992 12.7365 17.6992Z" stroke="black" stroke-width="2" stroke-linecap="round" stroke-linejoin="round"/>
<path d="M19.3369 6.23432V6.21045" stroke="black" stroke-width="2" stroke-linecap="round" stroke-linejoin="round"/>
</svg>
