<svg width="24" height="25" viewBox="0 0 24 25" fill="none" xmlns="http://www.w3.org/2000/svg">
<path d="M1 6.10679C1 3.67673 2.96995 1.70679 5.4 1.70679H18.6C21.03 1.70679 23 3.67673 23 6.10679V19.3068C23 21.7368 21.03 23.7068 18.6 23.7068H5.4C2.96995 23.7068 1 21.7368 1 19.3068V6.10679Z" stroke="white" stroke-width="2" stroke-linecap="round" stroke-linejoin="round"/>
<path d="M11.9999 17.5956C14.7 17.5956 16.8888 15.4068 16.8888 12.7068C16.8888 10.0067 14.7 7.81787 11.9999 7.81787C9.29985 7.81787 7.11102 10.0067 7.11102 12.7068C7.11102 15.4068 9.29985 17.5956 11.9999 17.5956Z" stroke="white" stroke-width="2" stroke-linecap="round" stroke-linejoin="round"/>
<path d="M18.6 6.13056V6.10669" stroke="white" stroke-width="2" stroke-linecap="round" stroke-linejoin="round"/>
</svg>
