<svg width="23" height="23" viewBox="0 0 23 23" fill="none" xmlns="http://www.w3.org/2000/svg">
<path d="M2.93682 5.21055C4.15184 5.21055 5.13682 4.22557 5.13682 3.01055C5.13682 1.79552 4.15184 0.810547 2.93682 0.810547C1.72179 0.810547 0.736816 1.79552 0.736816 3.01055C0.736816 4.22557 1.72179 5.21055 2.93682 5.21055Z" fill="black"/>
<path d="M0.736816 8.51074H5.13682V22.8107H0.736816V8.51074Z" fill="black"/>
<path d="M9.53662 22.8107H13.9366V15.1107C13.9366 13.8957 14.9216 12.9107 16.1366 12.9107C17.3517 12.9107 18.3366 13.8957 18.3366 15.1107V22.8107H22.7366V15.1107C22.7366 11.4657 19.7817 8.51074 16.1366 8.51074C12.4916 8.51074 9.53662 11.4657 9.53662 15.1107V22.8107Z" fill="black"/>
</svg>
