<svg width="22" height="23" viewBox="0 0 22 23" fill="none" xmlns="http://www.w3.org/2000/svg">
<path d="M2.2 5.10679C3.41503 5.10679 4.4 4.12181 4.4 2.90679C4.4 1.69176 3.41503 0.706787 2.2 0.706787C0.984973 0.706787 0 1.69176 0 2.90679C0 4.12181 0.984973 5.10679 2.2 5.10679Z" fill="white"/>
<path d="M0 8.40674H4.4V22.7067H0V8.40674Z" fill="white"/>
<path d="M8.80005 22.7067H13.2V15.0067C13.2 13.7917 14.185 12.8067 15.4 12.8067C16.6151 12.8067 17.6 13.7917 17.6 15.0067V22.7067H22V15.0067C22 11.3617 19.0451 8.40674 15.4 8.40674C11.755 8.40674 8.80005 11.3617 8.80005 15.0067V22.7067Z" fill="white"/>
</svg>
