<?xml version="1.0" encoding="utf-8"?>
<!-- Generator: Adobe Illustrator 27.4.1, SVG Export Plug-In . SVG Version: 6.00 Build 0)  -->
<svg version="1.1" id="Layer_1" xmlns="http://www.w3.org/2000/svg" xmlns:xlink="http://www.w3.org/1999/xlink" x="0px" y="0px"
	 viewBox="0 0 22 22" width="18px" height="18px" style="enable-background:new 0 0 22 22;" xml:space="preserve">
<style type="text/css">
	.st0{fill-rule:evenodd;clip-rule:evenodd;fill:#E45757;}
</style>
<path class="st0" d="M21.5,2.9c0.7-0.7,0.7-1.7,0-2.4c-0.7-0.7-1.7-0.7-2.4,0L11,8.6L2.9,0.5c-0.7-0.7-1.7-0.7-2.4,0
	c-0.7,0.7-0.7,1.7,0,2.4L8.6,11l-8.1,8.1c-0.7,0.7-0.7,1.7,0,2.4c0.7,0.7,1.7,0.7,2.4,0l8.1-8.1l8.1,8.1c0.7,0.7,1.7,0.7,2.4,0
	c0.7-0.7,0.7-1.7,0-2.4L13.4,11L21.5,2.9z"/>
</svg>
