<svg width="38" height="10" viewBox="0 0 38 10" xmlns="http://www.w3.org/2000/svg">
<path d="M3.13632 9.41199V6.49599H7.54032V4.62399H3.13632V2.90799H8.15232V1.04799H0.58032V9.41199H3.13632ZM13.3764 9.63999C16.1124 9.63999 17.2524 8.47599 17.2524 6.77199C17.2524 4.63599 14.9604 4.26399 13.3764 4.01199C12.0564 3.79599 11.6364 3.60399 11.6364 3.20799C11.6364 2.83599 12.0204 2.63199 12.7044 2.63199C13.6164 2.63199 14.5884 3.02799 15.1764 3.66399L16.8804 2.30799C15.8124 1.28799 14.4684 0.819987 12.7764 0.819987C10.7364 0.819987 9.05635 1.70799 9.05635 3.48399C9.05635 5.09199 10.3284 5.79999 12.7644 6.15999C14.3844 6.41199 14.6844 6.59199 14.6844 7.04799C14.6844 7.57599 14.0724 7.76799 13.3044 7.76799C12.3684 7.76799 11.2764 7.39599 10.9164 6.41199L8.46835 6.92799C8.97235 8.49999 10.4364 9.63999 13.3764 9.63999ZM20.859 9.41199V6.32799H24.459V9.41199H27.015V1.04799H24.459V4.07199H20.859V1.04799H18.303V9.41199H20.859ZM34.779 5.64399L30.975 1.04799H28.635V9.41199H31.191V4.77999L35.007 9.41199H37.347V1.04799H34.779V5.64399Z" fill="black"/>
</svg>
